<?xml version="1.0" standalone="no"?>
<!DOCTYPE svg PUBLIC "-//W3C//DTD SVG 20010904//EN"
 "http://www.w3.org/TR/2001/REC-SVG-20010904/DTD/svg10.dtd">
<svg version="1.0" xmlns="http://www.w3.org/2000/svg"
 width="1280.000000pt" height="654.000000pt" viewBox="0 0 1280.000000 654.000000"
 preserveAspectRatio="xMidYMid meet">
<metadata>
Created by potrace 1.15, written by Peter Selinger 2001-2017
</metadata>
<g transform="translate(0.000000,654.000000) scale(0.100000,-0.100000)"
fill="#000000" stroke="none">
<path d="M4210 6396 c-9 -28 -17 -36 -36 -36 -13 0 -24 -4 -24 -8 0 -5 -27 -6
-60 -4 -37 3 -65 0 -74 -7 -7 -6 -21 -9 -30 -5 -20 8 -20 7 0 -66 17 -58 17
-59 66 -71 36 -10 47 -17 44 -28 -3 -9 -17 -59 -32 -111 -29 -104 -40 -128
-29 -64 4 27 2 44 -4 49 -21 12 -42 79 -36 113 3 17 2 32 -3 32 -12 0 -22 -24
-22 -51 0 -10 -6 -19 -14 -19 -7 0 -20 -7 -27 -16 -7 -9 -23 -20 -35 -24 -13
-5 -24 -21 -27 -39 -4 -18 -13 -31 -21 -31 -22 0 -29 -19 -14 -37 11 -14 10
-15 -7 -10 -11 3 -37 9 -57 13 -32 5 -38 10 -38 30 0 18 -6 24 -21 24 -19 0
-21 4 -16 40 3 22 2 38 -3 35 -4 -3 -11 -30 -15 -60 -8 -68 -24 -64 -21 5 1
28 -1 50 -4 50 -3 0 -3 21 0 48 4 32 -1 66 -13 107 -11 33 -19 73 -19 88 1 18
-4 27 -11 24 -7 -3 -11 -9 -10 -15 3 -11 -37 -93 -56 -116 -5 -6 -11 -20 -14
-31 -4 -19 -5 -19 -6 1 0 12 -8 27 -16 34 -8 7 -13 16 -10 20 3 4 -1 25 -9 46
-7 22 -11 44 -9 51 3 7 0 20 -6 30 -8 15 -10 14 -16 -12 -3 -17 -13 -45 -21
-63 -8 -18 -14 -39 -14 -46 0 -8 -7 -19 -15 -26 -10 -8 -15 -31 -15 -66 0 -30
-4 -54 -9 -54 -5 0 -13 -36 -17 -81 -5 -59 -10 -79 -20 -75 -54 21 -232 13
-255 -12 -4 -4 -1 -88 6 -187 18 -225 18 -215 1 -215 -10 0 -16 19 -21 68 -9
86 -56 207 -100 257 -19 21 -35 32 -35 25 0 -8 -9 -32 -20 -55 -11 -23 -21
-64 -22 -93 -2 -29 -6 -52 -9 -52 -3 0 -11 30 -17 66 -11 64 -13 68 -63 104
-4 3 -13 36 -20 74 -8 40 -20 71 -28 74 -11 4 -12 -5 -7 -43 4 -26 10 -54 14
-63 3 -10 1 -13 -6 -8 -16 10 -15 -6 8 -120 16 -77 18 -99 8 -106 -7 -4 -17
-6 -22 -5 -5 2 -27 75 -48 162 -38 154 -41 161 -93 228 -43 55 -53 75 -49 94
5 19 2 25 -13 29 -11 3 -25 18 -31 32 l-12 27 5 -31 c2 -17 -1 -36 -7 -42 -9
-9 -8 -18 1 -35 10 -19 11 -40 2 -98 -11 -66 -21 -101 -21 -71 0 27 -142 -4
-203 -44 -39 -25 -40 -32 -22 -76 6 -15 2 -18 -24 -18 -46 0 -140 -38 -196
-80 -27 -20 -56 -35 -63 -32 -7 2 -21 20 -31 41 -11 20 -44 57 -75 81 -31 25
-56 48 -56 52 0 5 -9 17 -20 28 -23 23 -26 16 -7 -21 8 -14 17 -56 21 -93 7
-66 6 -67 -14 -56 -31 17 -59 40 -102 85 -25 25 -36 33 -32 20 4 -11 11 -25
15 -30 4 -6 14 -44 22 -87 8 -43 24 -90 37 -108 12 -17 20 -34 16 -37 -3 -3 4
-19 15 -35 12 -16 19 -32 16 -34 -3 -3 -13 6 -23 21 -9 14 -24 25 -33 24 -9
-1 -29 3 -44 10 -16 6 -33 9 -37 6 -5 -3 -23 15 -40 40 -17 25 -35 45 -40 45
-15 0 -12 -8 19 -53 27 -39 28 -46 20 -101 -7 -51 -5 -63 12 -84 10 -14 19
-29 19 -34 0 -13 -60 50 -75 79 -20 38 -133 133 -150 126 -9 -3 -26 3 -38 13
-18 16 -19 16 -8 2 8 -11 11 -28 7 -44 -5 -19 3 -43 30 -92 21 -37 48 -78 61
-92 56 -59 96 -107 109 -132 14 -27 14 -28 -10 -28 -19 0 -42 20 -93 79 l-68
79 -65 1 -64 1 59 -62 c33 -35 76 -81 95 -103 32 -36 30 -36 -15 7 l-51 48
-27 -27 -27 -27 47 -48 c26 -26 44 -51 40 -55 -4 -4 -29 14 -55 40 l-48 47
-22 -23 c-12 -13 -22 -28 -22 -33 0 -5 39 -50 88 -99 79 -81 89 -99 20 -36
l-28 25 -26 -25 -26 -24 49 -42 c26 -23 45 -44 42 -47 -3 -4 -27 12 -53 35
-26 23 -48 40 -49 38 -1 -2 -11 -14 -21 -27 -19 -22 -19 -23 9 -52 39 -41 25
-48 -18 -10 -20 17 -45 33 -57 35 -12 2 -30 7 -40 10 -18 6 -18 4 1 -31 10
-20 34 -48 54 -62 29 -21 45 -42 32 -42 -2 0 -35 24 -74 53 -46 34 -68 57 -65
67 4 12 3 13 -10 2 -13 -10 -15 -8 -10 15 5 28 5 28 -16 10 -20 -18 -20 -18
-27 3 -6 20 -8 20 -20 4 -10 -15 -16 -16 -28 -6 -12 10 -15 9 -19 -6 -5 -17
-13 -19 -59 -14 -30 2 -62 12 -73 21 -10 9 -28 16 -40 17 -11 1 -30 4 -41 8
-17 6 -17 5 2 -10 13 -9 23 -24 23 -34 0 -10 9 -20 19 -23 11 -2 31 -28 46
-57 25 -49 25 -53 9 -71 -16 -17 -16 -19 -1 -19 20 0 22 -21 5 -39 -11 -11 -9
-12 11 -6 21 7 23 5 19 -18 -4 -23 -3 -25 13 -17 24 13 32 13 23 -2 -4 -7 -3
-8 5 -4 6 4 44 -13 86 -39 80 -50 106 -84 29 -39 -25 15 -64 29 -87 32 -38 4
-40 3 -24 -13 9 -9 17 -21 17 -26 0 -5 23 -23 50 -40 28 -17 50 -33 50 -36 0
-2 -15 4 -32 15 -18 11 -61 36 -95 55 l-63 36 1 -42 c2 -77 9 -87 94 -133 69
-38 81 -48 87 -76 3 -18 5 -35 2 -39 -2 -3 -27 0 -56 8 -29 8 -71 11 -93 8
-22 -3 -50 -5 -62 -5 -25 0 -29 -10 -12 -27 6 -6 17 -22 23 -35 6 -12 37 -43
68 -68 31 -25 55 -46 54 -47 -1 -1 -119 44 -263 100 l-260 103 18 46 18 46
-36 50 -35 51 -35 -26 c-19 -14 -45 -46 -59 -70 -14 -23 -32 -43 -39 -43 -7 0
-18 -7 -25 -14 -9 -11 -18 -13 -37 -5 -37 14 -40 4 -3 -11 33 -14 31 -7 34
-147 0 -45 5 -85 9 -89 4 -4 33 -1 64 7 56 14 58 15 72 61 l14 46 96 -34 c53
-19 102 -37 110 -40 8 -2 12 -7 9 -10 -3 -2 -18 0 -33 6 -22 8 -31 7 -45 -5
-9 -8 -22 -15 -28 -15 -7 0 -21 -5 -31 -11 -13 -9 -26 -9 -49 -1 -39 13 -55
-4 -17 -18 14 -6 31 -10 36 -10 5 0 9 -6 9 -14 0 -7 7 -20 16 -27 9 -7 20 -24
25 -36 5 -15 20 -26 39 -30 23 -4 29 -10 25 -21 -7 -20 16 -34 33 -20 11 9 12
6 6 -18 -19 -77 -20 -79 -45 -79 -17 0 -25 -7 -27 -22 -2 -12 -9 -20 -15 -18
-38 11 -68 15 -63 7 3 -5 31 -15 63 -22 47 -12 53 -15 33 -20 -14 -4 -40 -3
-57 1 -18 4 -33 3 -33 -1 0 -4 -21 -3 -46 2 -25 5 -57 6 -72 2 -49 -13 -57
-15 -111 -19 -67 -6 -73 -11 -27 -23 19 -6 48 -19 64 -31 16 -11 31 -19 33
-17 2 1 12 -5 21 -15 17 -18 17 -19 0 -27 -20 -11 -115 -34 -128 -31 -5 1 -20
0 -34 -1 -21 -2 -19 -4 15 -15 43 -14 108 -46 129 -65 8 -6 37 -13 65 -17 28
-3 51 -10 51 -14 0 -5 10 -9 22 -9 12 0 48 -5 81 -12 51 -11 58 -15 52 -33
-23 -79 -24 -206 -2 -241 5 -8 150 -10 499 -8 271 2 504 4 518 5 71 3 294 87
259 97 -8 3 -23 13 -35 23 -11 11 -47 29 -80 40 -32 11 -61 23 -64 26 -3 3 26
3 63 -1 58 -6 74 -4 100 13 28 16 40 18 101 9 63 -8 87 -6 74 7 -3 3 -28 8
-56 12 -28 3 -49 9 -47 14 6 9 -13 15 -75 24 -104 14 -150 27 -150 40 0 30 30
29 239 -11 49 -9 105 -12 165 -8 50 3 102 1 115 -4 13 -5 35 -7 48 -4 l24 4
-22 16 c-12 8 -32 16 -45 18 -13 1 -50 18 -83 38 l-59 36 28 30 c23 25 50 94
50 129 0 6 -14 18 -31 27 l-31 16 25 26 c36 40 57 76 72 124 7 24 18 43 26 44
8 0 33 -13 56 -28 23 -15 48 -28 57 -28 8 0 40 -13 70 -29 31 -16 56 -27 56
-24 0 2 -18 23 -41 46 -54 56 -65 77 -41 77 10 0 22 -4 28 -8 5 -5 30 -21 56
-36 l48 -27 -38 53 c-20 29 -58 74 -83 100 -25 27 -44 48 -41 48 3 0 -7 14
-24 31 -27 29 -27 31 -4 16 14 -8 45 -18 70 -22 34 -5 56 -17 88 -48 23 -23
42 -37 42 -31 0 6 -15 25 -34 43 -27 26 -35 44 -40 85 -5 35 -15 61 -31 78
-13 14 -21 28 -19 31 3 3 22 -13 42 -36 63 -71 165 -165 184 -170 14 -4 18 1
18 18 0 26 -60 136 -97 176 -13 14 -23 30 -23 35 0 6 -10 19 -21 30 -21 19
-69 88 -69 99 0 4 10 5 22 3 15 -2 43 -33 86 -93 53 -75 70 -92 108 -106 24
-9 44 -15 44 -13 0 3 -15 28 -33 57 -48 76 -49 78 -40 75 14 -4 53 13 53 23 0
5 -14 34 -31 64 -17 30 -27 55 -22 55 4 0 21 -25 38 -55 16 -30 31 -55 33 -55
3 0 45 21 50 25 2 2 -11 30 -27 64 -17 34 -28 61 -24 61 4 0 2 5 -5 12 -7 7
-12 16 -12 22 0 5 6 1 14 -9 12 -17 17 -18 40 -7 26 12 26 12 10 49 -28 65
-26 91 2 30 25 -54 29 -58 53 -52 35 9 36 11 23 40 -14 30 -16 64 -4 49 5 -5
17 -30 26 -56 10 -27 21 -48 26 -48 5 0 12 -9 15 -20 3 -11 9 -20 13 -20 11 0
5 92 -7 123 -13 34 -15 55 -2 41 13 -14 53 -153 46 -163 -3 -5 1 -11 7 -14 10
-3 10 -7 -1 -20 -12 -15 -11 -17 7 -17 15 0 19 -5 15 -20 -4 -16 -2 -19 11
-14 12 5 16 0 16 -16 0 -19 2 -20 15 -10 9 7 17 11 19 9 25 -30 56 -88 56
-104 0 -11 7 -28 14 -38 13 -16 14 -16 20 7 3 13 3 32 0 40 -4 9 -3 41 1 71 5
44 9 53 22 48 12 -5 15 -2 10 11 -4 10 -1 19 7 22 8 3 12 14 9 25 -3 12 0 19
8 19 11 1 11 3 -1 13 -8 7 -16 21 -17 32 -1 11 -7 47 -13 80 -13 79 -13 115 0
95 5 -8 10 -28 10 -45 0 -16 8 -49 18 -72 l17 -43 17 48 16 47 1 -61 c1 -33 4
-63 7 -66 3 -3 24 11 46 32 l41 38 -6 89 c-6 85 -5 91 16 111 34 32 44 27 57
-30 7 -29 24 -78 38 -110 l25 -56 30 45 c17 25 41 73 53 107 13 34 23 51 23
39 1 -12 -12 -135 -29 -273 -16 -138 -30 -255 -30 -260 0 -5 -14 -10 -32 -12
-28 -3 -33 -9 -48 -53 l-18 -50 26 -28 c14 -15 32 -27 39 -27 7 0 13 -6 13
-14 0 -23 20 -29 39 -12 10 9 23 16 30 16 7 0 26 8 42 17 25 15 29 24 29 59 0
55 -8 74 -30 74 -11 0 -22 5 -25 10 -7 11 24 211 34 222 4 5 5 -7 3 -25 -2
-17 3 -52 11 -76 9 -24 14 -60 11 -80 l-4 -36 13 35 c6 19 29 52 50 73 20 21
37 48 37 59 0 12 8 22 21 25 15 4 19 11 16 25 -4 14 -2 18 10 14 8 -3 26 -9
40 -12 20 -5 23 -11 19 -29 -4 -15 -1 -25 10 -29 11 -4 13 -13 8 -28 -15 -50
-14 -51 11 -3 24 47 25 48 19 15 -3 -19 -7 -42 -8 -50 -1 -8 -10 -39 -20 -68
-10 -28 -16 -58 -14 -64 3 -7 -1 -37 -9 -68 -17 -72 -16 -81 5 -44 9 17 30 47
46 68 25 32 31 35 36 21 6 -16 -8 -84 -25 -127 -12 -30 -1 -20 40 37 22 30 43
55 47 55 4 0 19 23 33 50 14 28 35 60 45 70 11 11 20 27 20 35 0 8 4 15 8 15
5 0 17 18 27 39 l17 40 49 -39 c53 -41 130 -76 152 -67 8 3 51 65 97 139 95
153 106 166 120 152 7 -7 0 -26 -22 -58 -17 -27 -32 -56 -33 -65 -1 -9 -9 -38
-17 -66 -16 -48 -30 -145 -22 -145 17 0 99 48 133 76 50 43 52 36 6 -26 -26
-35 -35 -58 -35 -87 0 -30 -9 -52 -40 -93 -22 -29 -40 -57 -40 -62 0 -20 21
-4 52 38 18 25 34 41 36 35 2 -6 34 28 70 76 70 90 88 105 98 80 5 -15 -38
-81 -134 -203 -26 -33 -56 -87 -74 -137 -16 -45 -38 -91 -49 -103 -10 -11 -19
-26 -19 -32 0 -7 -7 -25 -16 -40 l-16 -27 20 23 c11 12 27 22 36 22 9 0 20 10
25 23 5 13 39 43 76 66 42 26 65 36 61 26 -7 -20 73 -108 115 -125 26 -11 32
-10 53 9 l23 22 28 -41 c31 -44 85 -91 128 -111 35 -16 34 -38 -3 -74 -17 -16
-42 -54 -56 -84 -14 -31 -32 -63 -41 -73 -9 -10 -13 -21 -10 -25 4 -4 13 0 20
9 17 21 107 71 107 60 0 -6 -21 -33 -47 -62 l-47 -52 57 36 c31 20 60 36 64
36 7 0 63 35 146 92 15 10 27 14 27 8 0 -6 -7 -13 -15 -16 -8 -3 -25 -26 -37
-51 -15 -30 -35 -51 -60 -64 -20 -10 -40 -24 -44 -31 -4 -6 14 0 40 15 32 18
68 28 112 31 35 3 77 12 94 21 18 9 31 11 35 5 3 -6 -1 -10 -10 -10 -9 0 -29
-6 -43 -14 -15 -8 -69 -33 -120 -57 -158 -73 -140 -90 43 -43 55 14 116 30
135 34 19 5 53 15 75 23 22 8 57 18 78 21 36 7 38 6 28 -12 -8 -15 -40 -27
-129 -47 -93 -22 -127 -35 -153 -57 -24 -21 -28 -28 -14 -24 11 3 51 10 88 17
62 10 70 10 89 -7 14 -14 34 -19 72 -18 43 1 45 0 9 -3 -46 -4 -52 -13 -28
-33 11 -10 39 -11 103 -7 72 5 93 4 111 -9 12 -9 20 -22 17 -30 -4 -10 11 -14
67 -17 l72 -3 -81 -2 c-66 -2 -84 -6 -98 -21 -17 -19 -17 -20 21 -26 65 -11
61 -15 -17 -13 -41 1 -95 1 -120 0 l-45 -3 32 -14 c17 -7 57 -17 87 -20 31 -4
59 -11 62 -17 3 -5 -5 -7 -18 -4 -12 3 -62 10 -110 17 -49 7 -88 17 -88 22 0
5 -7 4 -15 -3 -12 -10 -16 -9 -21 4 -4 11 -10 13 -18 8 -6 -5 -35 -9 -63 -8
-29 1 -54 -3 -57 -9 -4 -10 -122 -4 -178 9 -16 3 -28 2 -28 -3 0 -5 14 -13 32
-16 17 -4 50 -17 74 -30 31 -17 39 -26 31 -34 -8 -8 -6 -11 7 -11 9 0 15 -4
11 -9 -3 -5 4 -12 15 -16 11 -4 17 -11 14 -17 -5 -7 0 -9 14 -6 12 4 22 3 22
-2 0 -4 10 -8 23 -8 30 -1 171 -58 175 -71 2 -6 -18 -2 -45 10 -26 11 -70 24
-96 29 l-49 7 26 -24 c14 -13 26 -26 26 -29 0 -2 -28 10 -61 27 -48 24 -60 27
-55 14 3 -9 6 -30 6 -46 0 -25 10 -36 83 -83 80 -51 84 -55 79 -85 -6 -39 -16
-46 -44 -27 -25 16 -168 66 -189 66 -10 0 -10 -3 -1 -12 7 -7 12 -22 12 -35 0
-26 15 -63 48 -116 13 -22 22 -41 20 -43 -3 -2 -55 51 -118 119 -62 67 -148
159 -191 203 l-77 81 20 21 c20 19 20 23 6 44 -32 48 -68 78 -92 78 -14 0 -27
-4 -30 -9 -9 -15 -65 -5 -89 15 -22 19 -22 19 -4 -2 21 -25 22 -72 2 -102 -9
-12 -18 -37 -20 -57 -5 -33 -3 -36 46 -61 l52 -26 25 26 25 25 66 -71 c77 -83
111 -128 65 -87 -18 17 -46 30 -74 34 -31 4 -52 15 -67 33 -12 14 -25 23 -29
19 -4 -4 3 -18 15 -31 16 -16 24 -40 27 -71 2 -25 12 -59 23 -74 15 -21 17
-31 9 -39 -8 -8 -5 -14 12 -20 23 -8 23 -9 -13 -37 -30 -22 -40 -25 -52 -15
-8 7 -22 10 -30 6 -10 -4 -26 5 -41 22 -32 34 -20 10 19 -40 36 -48 25 -49
-20 -3 -19 19 -37 35 -41 35 -4 0 -18 15 -31 33 -13 18 -42 44 -64 57 -22 14
-53 38 -70 53 -16 15 -31 26 -33 24 -2 -2 10 -30 27 -62 16 -32 29 -67 27 -77
-3 -18 -8 -16 -53 18 -27 21 -54 44 -58 51 -4 7 -12 13 -17 13 -5 0 4 -27 21
-59 16 -33 29 -66 29 -74 0 -8 14 -34 32 -58 18 -24 32 -48 33 -54 0 -10 20
-43 56 -97 11 -15 19 -31 19 -35 0 -4 -19 -16 -43 -26 -47 -19 -137 -92 -137
-110 0 -7 42 -77 94 -157 72 -111 91 -148 83 -158 -9 -11 -14 -9 -29 10 -9 13
-18 28 -18 33 0 15 -135 135 -181 161 l-36 21 -2 -47 c0 -26 6 -72 13 -101 8
-30 13 -55 11 -57 -1 -2 -17 22 -35 53 -22 39 -42 60 -65 70 -26 10 -41 28
-64 74 -30 58 -51 84 -51 61 0 -6 12 -33 26 -61 14 -28 21 -48 15 -44 -18 10
-14 0 40 -107 39 -79 48 -103 37 -109 -7 -5 -16 -9 -21 -9 -7 0 -43 67 -108
205 -21 43 -58 96 -96 137 -35 37 -63 74 -63 83 0 8 -8 23 -19 34 -10 10 -24
27 -29 37 -16 27 -4 -51 13 -91 7 -16 15 -58 18 -93 4 -51 3 -61 -8 -52 -17
14 -97 -4 -142 -32 -30 -18 -33 -24 -27 -53 l6 -32 -64 -5 c-35 -3 -86 -15
-113 -27 -56 -25 -60 -22 -70 47 -4 25 -11 52 -16 61 -17 32 -39 94 -39 112 0
11 -3 19 -7 19 -5 0 -9 -26 -10 -57 -5 -113 -30 -119 -54 -13 -7 33 -17 60
-22 60 -5 0 -7 -6 -4 -14 3 -8 0 -40 -8 -73 -7 -32 -15 -97 -17 -145 -2 -49
-6 -88 -10 -88 -5 0 -8 13 -8 29 0 16 -6 31 -15 35 -8 3 -15 12 -15 19 0 8 -7
20 -15 27 -10 8 -16 33 -17 74 l-1 61 -6 -55 c-6 -53 -31 -106 -58 -123 -7 -4
-13 -26 -13 -47 0 -22 -4 -40 -8 -40 -5 0 -7 21 -5 48 8 108 2 247 -11 261
-12 11 -16 10 -29 -10 -18 -30 -49 -143 -51 -186 0 -17 -4 -35 -8 -39 -5 -4
-8 -26 -8 -48 0 -23 -6 -58 -13 -79 -13 -37 -14 -37 -26 -14 -10 19 -9 42 6
128 18 98 18 106 3 142 -9 20 -19 40 -23 43 -3 3 -14 -32 -24 -78 -10 -45 -19
-76 -21 -67 -3 14 -29 28 -53 29 -3 0 -12 -25 -19 -55 -7 -31 -17 -58 -22 -61
-11 -7 -10 0 8 63 9 30 14 56 12 58 -1 2 -14 6 -28 10 -23 5 -27 1 -46 -52
-21 -59 -27 -63 -72 -49 -20 7 -25 1 -48 -49 -14 -32 -27 -55 -30 -52 -3 3 5
29 17 57 22 51 22 53 4 66 -29 21 -40 17 -59 -22 -9 -20 -20 -34 -23 -30 -4 3
3 23 14 44 11 20 23 56 26 79 l5 43 -28 -23 c-15 -12 -37 -41 -49 -64 -11 -24
-25 -43 -31 -43 -13 0 46 111 76 145 12 13 19 26 16 29 -3 3 3 6 13 6 15 0 15
2 4 16 -11 13 -10 18 5 26 14 8 15 12 5 18 -10 7 -10 11 0 24 11 13 11 16 -3
16 -9 0 -16 3 -16 6 0 20 25 102 35 114 7 8 15 25 18 37 5 21 4 21 -19 6 -13
-8 -24 -20 -24 -27 0 -18 -98 -77 -104 -63 -3 9 -7 8 -14 -2 -9 -12 -13 -12
-26 -2 -14 12 -16 10 -16 -8 0 -17 -4 -21 -19 -16 -16 5 -18 2 -14 -16 5 -16
3 -20 -6 -15 -8 5 -11 3 -9 -5 3 -17 -103 -149 -115 -142 -4 2 6 20 23 39 25
28 60 93 60 110 0 9 -57 -32 -99 -70 -29 -27 -20 -13 27 40 40 44 72 84 72 87
0 4 -24 7 -52 7 -51 -1 -56 -4 -122 -64 -64 -59 -71 -63 -99 -55 -16 5 -31 10
-33 12 -3 2 16 34 41 71 25 37 45 75 45 85 0 9 5 22 12 29 6 6 10 13 7 16 -9
8 -128 -14 -172 -33 -26 -11 -47 -17 -47 -13 0 4 105 75 233 158 228 149 232
151 248 131 l17 -21 53 21 54 20 1 46 c1 26 8 57 17 70 15 23 14 23 -14 19
-18 -3 -37 2 -47 10 -35 31 -65 29 -106 -8 -36 -31 -39 -37 -30 -62 9 -26 7
-28 -66 -70 -98 -57 -130 -73 -130 -68 0 2 16 13 35 25 19 11 34 24 33 28 -5
15 35 64 64 79 17 9 28 18 25 20 -3 3 -18 -1 -34 -9 -17 -8 -49 -12 -81 -10
-29 2 -62 -2 -74 -8 -16 -9 -23 -8 -29 2 -8 11 -12 10 -24 -5 -15 -20 -14 -22
-40 52 -3 8 4 16 15 19 14 4 19 11 15 23 -4 14 3 21 30 30 54 18 37 22 -20 5
-63 -19 -79 -19 -35 1 19 9 53 24 75 34 22 10 51 21 65 25 14 4 32 13 40 20
18 14 87 51 114 59 35 12 11 14 -54 7 -97 -12 -113 -1 -50 33 29 16 64 32 78
37 17 5 -19 7 -98 5 -178 -5 -286 -12 -299 -20 -8 -5 -11 13 -11 59 0 76 -17
155 -35 161 -7 3 -108 -1 -226 -9 -183 -11 -215 -11 -222 1 -7 11 -46 13 -225
7 -368 -10 -385 -12 -464 -40 -40 -15 -88 -39 -106 -54 l-32 -28 52 -26 c29
-15 74 -30 100 -33 64 -9 50 -24 -22 -24 -53 0 -61 -3 -85 -32 -23 -27 -34
-32 -83 -35 -31 -3 -75 -11 -97 -19 l-40 -14 83 2 c45 2 82 -1 82 -6 0 -8 22
-7 178 11 48 5 52 4 52 -15 0 -14 -8 -23 -23 -26 -43 -8 -213 -36 -257 -42
-28 -5 -71 -23 -115 -52 -51 -33 -79 -45 -102 -43 -23 1 -33 -3 -33 -12 0 -8
-15 -19 -32 -25 l-33 -10 31 -1 c16 -1 35 -6 42 -13 9 -9 17 -9 36 1 20 11 36
10 101 -5 43 -10 72 -20 66 -22 -29 -10 -1 -179 38 -231 14 -19 21 -21 44 -12
24 9 27 8 27 -10 0 -50 34 -162 65 -213 19 -31 32 -63 29 -70 -3 -7 -22 -18
-42 -24 -22 -7 -59 -33 -92 -67 -30 -30 -60 -55 -67 -55 -14 0 -17 -12 -6 -23
3 -4 11 -3 17 2 6 5 47 11 91 13 l80 5 -56 -59 c-31 -32 -59 -58 -63 -58 -4 0
-16 -9 -28 -19 l-20 -20 23 6 c13 3 29 10 35 14 5 5 39 9 75 10 41 2 78 10
104 23 22 11 46 19 53 18 7 -2 22 4 34 13 31 21 48 18 19 -4 -22 -17 -50 -78
-51 -111 0 -8 -23 -27 -51 -43 -27 -15 -47 -32 -44 -38 4 -6 23 0 50 15 39 24
47 25 105 15 51 -8 66 -7 86 6 27 18 34 19 34 5 0 -5 -7 -10 -15 -10 -8 0 -19
-9 -24 -19 -6 -10 -23 -23 -38 -29 -46 -17 -141 -113 -147 -148 -5 -29 -2 -32
24 -38 35 -7 163 48 194 83 11 11 26 21 35 21 9 0 29 13 44 29 25 27 86 65 93
59 1 -2 0 -15 -3 -29 -3 -19 -27 -43 -84 -83 -43 -31 -83 -65 -89 -76 -5 -10
-10 -40 -10 -65 l0 -47 44 34 c24 18 74 57 110 86 36 29 66 49 66 45 -1 -5
-23 -25 -50 -46 l-50 -38 22 -30 c12 -16 25 -29 28 -29 4 0 28 19 54 41 26 23
50 39 53 36 3 -4 -16 -26 -43 -50 l-48 -44 23 -31 23 -32 50 42 c27 24 71 62
97 86 27 23 52 42 57 42 5 0 -13 -20 -41 -45 l-50 -44 26 -26 26 -27 42 43
c22 23 44 39 48 35 4 -3 -12 -26 -35 -49 l-42 -43 25 -24 25 -24 30 29 c41 40
46 27 7 -20 -26 -32 -62 -105 -52 -105 21 0 79 38 103 67 17 21 33 35 37 32
11 -12 -107 -140 -123 -134 -13 5 -13 3 -1 -11 13 -16 11 -17 -14 -12 -26 5
-27 4 -12 -12 17 -19 11 -30 -19 -30 -19 0 -19 -1 3 -17 22 -15 23 -17 7 -29
-16 -11 -16 -13 4 -19 18 -6 21 -12 16 -37 -3 -17 -6 -41 -6 -54 0 -13 -10
-32 -21 -43 -12 -11 -19 -26 -16 -34 3 -8 -2 -25 -11 -38 -15 -24 -15 -24 4
-7 12 10 29 18 38 18 10 0 20 9 23 20 3 12 27 30 62 45 l56 26 17 -22 18 -21
0 21 c0 22 14 28 25 11 11 -17 24 -11 20 10 -4 23 -1 24 26 9 19 -9 19 -9 10
10 -15 27 -14 31 7 24 13 -5 14 -3 6 6 -9 10 1 30 39 86 28 41 54 72 59 69 4
-3 -5 -24 -21 -47 -16 -23 -31 -59 -34 -79 l-6 -37 31 19 c17 10 43 38 59 62
16 23 29 39 29 35 0 -4 -22 -43 -50 -86 -27 -43 -50 -81 -50 -85 0 -4 28 -6
62 -4 l62 3 46 80 c39 67 50 80 78 86 39 8 47 -2 33 -44 -10 -31 -13 -76 -11
-161 0 -35 2 -37 18 -24 9 7 30 20 46 28 17 8 48 38 70 67 22 29 42 50 44 48
2 -2 -44 -114 -102 -249 -58 -135 -106 -250 -106 -255 0 -14 0 -14 -54 9 l-46
21 -48 -32 c-26 -18 -49 -34 -51 -35 -9 -7 53 -77 90 -101 21 -14 39 -31 39
-38 0 -7 7 -18 14 -25 11 -8 12 -18 5 -36 -14 -37 -10 -43 7 -11 8 15 23 27
32 27 10 0 23 5 29 11 7 7 23 7 53 -1 25 -7 63 -9 91 -5 44 6 48 9 44 28 -3
12 -9 40 -13 62 -7 35 -13 42 -52 57 -27 10 -44 22 -42 30 9 40 76 198 83 198
6 0 5 -8 -1 -19 -13 -25 -13 -61 0 -61 6 0 10 -11 10 -24 0 -14 5 -28 11 -32
10 -6 7 -30 -7 -68 -3 -9 -1 -16 5 -16 7 0 17 14 22 30 6 17 17 30 23 30 7 0
21 9 31 20 10 11 26 20 36 20 12 0 21 10 25 26 4 14 17 30 31 35 16 6 23 15
19 24 -7 18 -7 18 50 4 41 -11 45 -15 41 -36 -3 -18 1 -25 20 -29 16 -4 22
-11 19 -21 -15 -39 -19 -66 -7 -59 6 4 11 15 11 24 0 9 7 35 14 57 13 35 14
37 18 15 2 -14 0 -38 -4 -55 -4 -16 -4 -31 0 -33 5 -1 3 -26 -4 -53 -9 -36
-10 -57 -3 -70 5 -10 12 -51 14 -91 6 -81 11 -93 21 -52 4 16 24 54 43 84 20
30 39 62 43 70 4 10 7 7 7 -11 1 -14 4 -29 8 -33 8 -7 9 -15 21 -106 l8 -65
11 37 c6 21 27 64 47 97 20 32 36 70 36 84 0 15 6 41 14 59 8 18 20 61 28 96
11 56 15 63 33 57 66 -20 146 -28 196 -19 l54 9 6 160 c4 88 7 179 8 203 1 30
5 42 16 42 12 0 15 -15 14 -77 -1 -89 35 -218 75 -266 l23 -29 24 39 c13 21
31 67 40 103 l16 65 8 -70 c6 -57 12 -75 36 -100 24 -25 28 -40 31 -94 2 -43
7 -66 16 -69 11 -3 13 9 10 56 -2 38 1 58 7 55 7 -2 8 20 4 69 -14 130 -12
158 10 158 16 0 21 -9 25 -43 3 -23 8 -58 11 -77 3 -19 10 -72 16 -118 9 -71
17 -94 56 -158 33 -55 43 -81 39 -99 -5 -18 -1 -27 14 -35 12 -6 21 -22 21
-38 2 -27 2 -27 6 -2 2 14 9 35 14 46 7 14 8 28 2 40 -6 13 -2 45 12 99 12 44
24 73 27 65 10 -31 175 -10 226 29 19 14 22 21 13 43 -9 25 -9 25 55 32 73 8
160 37 198 67 31 24 46 15 65 -43 7 -20 34 -60 61 -90 27 -29 50 -58 50 -65 0
-6 4 -14 9 -18 6 -3 8 21 4 62 -2 38 -1 78 4 91 9 23 10 23 56 -25 26 -26 47
-52 47 -58 0 -5 7 -18 14 -28 12 -16 13 -15 14 8 0 14 -5 28 -10 31 -5 3 -8
38 -7 78 1 51 -3 82 -15 105 -10 18 -15 38 -13 44 2 7 -2 25 -10 40 -8 16 -12
31 -9 34 3 3 11 -6 17 -21 7 -14 19 -26 28 -26 9 0 25 -7 35 -15 11 -8 27 -15
36 -15 10 0 26 -20 40 -50 13 -27 27 -50 32 -50 13 0 9 18 -13 62 -17 33 -19
45 -10 62 14 25 17 101 6 136 -5 16 3 9 23 -20 18 -25 32 -51 32 -58 0 -21
101 -142 118 -142 8 0 23 -7 32 -15 16 -14 17 -14 13 8 -3 14 0 27 5 31 12 7
-32 151 -53 176 -7 8 -20 31 -30 50 -9 19 -29 58 -45 85 -36 63 -36 65 -3 56
22 -6 41 -29 83 -101 l55 -93 55 -13 c30 -7 56 -11 57 -10 2 1 -17 33 -40 72
-64 103 -99 164 -94 164 2 0 18 -22 35 -50 17 -27 35 -50 39 -50 4 0 20 8 35
18 l27 17 -35 55 c-18 29 -32 56 -29 58 6 6 4 9 44 -50 18 -27 35 -48 39 -48
4 0 19 8 34 18 l27 18 -34 52 c-19 28 -35 55 -35 59 0 5 -16 32 -35 61 -20 28
-33 52 -31 52 3 0 19 -21 37 -47 18 -27 33 -49 35 -51 4 -6 54 30 54 40 0 5
-14 30 -31 54 -43 63 -30 66 15 4 l37 -51 29 21 30 21 -26 34 c-14 18 -21 36
-16 39 5 3 22 -12 37 -34 15 -22 42 -48 60 -59 l33 -19 -5 36 c-3 20 -15 51
-28 67 -32 44 -37 55 -28 55 14 0 108 -133 105 -148 -2 -9 1 -11 9 -6 9 5 11
1 7 -13 -4 -16 -2 -19 13 -16 15 4 19 0 19 -17 0 -22 1 -22 19 -6 17 16 19 16
25 -1 7 -17 8 -17 21 0 12 17 16 16 68 -9 31 -15 58 -36 60 -46 3 -10 13 -18
23 -18 9 0 26 -8 38 -18 19 -17 19 -17 4 7 -9 13 -14 30 -11 38 3 8 -3 21 -14
28 -12 8 -23 31 -27 54 -3 21 -9 46 -12 54 -3 10 3 18 17 22 21 7 21 8 5 20
-16 12 -16 14 4 28 l21 14 -21 6 c-18 5 -20 9 -11 25 9 18 8 19 -11 14 -17 -4
-20 -2 -15 11 4 11 2 14 -7 11 -14 -5 -127 126 -119 139 2 4 19 -10 36 -31 18
-22 49 -48 70 -60 l38 -21 -7 22 c-16 50 -24 67 -56 103 -18 22 -22 30 -9 19
13 -11 46 -48 73 -82 28 -34 54 -60 58 -58 4 2 12 29 19 60 l13 55 -62 72
c-46 53 -60 76 -56 92 3 12 6 27 6 34 0 19 17 14 73 -23 28 -19 68 -38 87 -41
19 -4 43 -11 53 -16 16 -8 18 -6 14 9 -3 10 -8 36 -12 58 -4 22 -20 64 -36 94
-16 30 -27 56 -26 58 2 2 90 -90 195 -204 l192 -208 -30 -26 c-33 -28 -35 -40
-19 -105 11 -44 12 -44 48 -38 20 3 52 15 71 26 49 28 90 30 120 4 l25 -21
-22 25 c-26 30 -22 68 14 120 12 19 23 44 23 55 0 12 5 26 11 32 8 8 -6 16
-49 31 l-60 20 -34 -28 -34 -28 -77 83 c-75 81 -105 126 -49 72 15 -14 36 -26
47 -27 52 -1 77 -8 100 -30 31 -29 46 -18 18 13 -11 12 -23 43 -27 70 -3 27
-15 60 -25 73 -11 14 -17 32 -14 40 3 7 -2 17 -12 20 -14 6 -12 11 12 36 22
23 30 26 38 15 5 -7 20 -13 31 -13 22 0 22 16 1 44 -5 7 -8 14 -6 17 5 4 44
-54 138 -204 25 -39 46 -70 47 -68 2 2 -3 25 -12 52 -21 72 -12 89 15 27 13
-29 25 -51 26 -50 3 3 -3 47 -26 178 -7 41 -14 84 -15 95 -2 26 -23 153 -31
183 -4 16 -1 22 12 22 10 0 49 32 86 71 l69 72 1 241 c1 133 4 255 8 271 l6
30 14 -32 c8 -21 12 -68 11 -140 -1 -59 1 -128 4 -153 38 -258 39 -263 58
-238 10 13 32 49 49 82 17 32 32 56 34 54 2 -2 -3 -35 -11 -73 -12 -55 -13
-81 -4 -120 9 -43 7 -63 -10 -130 -23 -91 -23 -95 -12 -95 5 0 14 25 21 55 7
30 16 55 21 55 7 0 37 89 77 224 5 18 6 18 24 -1 19 -18 19 -20 -7 -93 -14
-41 -27 -84 -29 -94 -3 -10 -18 -58 -34 -105 -16 -47 -36 -125 -45 -172 -9
-47 -23 -99 -31 -115 -8 -16 -15 -35 -15 -42 0 -21 19 -3 34 31 7 18 34 55 60
82 26 28 45 45 41 38 -13 -27 34 -88 90 -117 28 -14 31 -14 53 7 24 22 25 22
36 3 24 -43 94 -111 147 -145 62 -41 63 -47 13 -104 -19 -20 -34 -43 -34 -51
0 -17 -35 -93 -57 -125 -17 -24 -17 -24 5 -12 12 6 22 15 22 19 0 4 26 20 58
36 31 16 70 41 87 55 l30 26 -22 -25 c-12 -14 -31 -52 -44 -85 -12 -33 -27
-67 -34 -75 -27 -33 -29 -43 -6 -31 11 7 21 15 21 20 0 4 18 16 40 26 22 10
40 22 40 27 0 4 9 8 20 8 10 0 33 18 51 40 18 22 36 37 40 34 4 -2 16 7 25 21
9 14 21 25 27 25 5 0 3 -8 -6 -18 -12 -13 -15 -34 -13 -80 2 -54 -1 -65 -22
-84 -32 -31 -47 -58 -30 -58 7 1 26 18 43 39 29 37 38 40 113 42 12 1 33 15
47 31 14 17 29 27 33 24 4 -4 -1 -12 -11 -17 -9 -6 -17 -16 -17 -24 0 -7 -13
-26 -28 -42 -43 -44 -95 -143 -96 -185 -1 -31 1 -35 17 -27 9 6 22 7 27 4 11
-7 140 104 140 120 0 6 15 28 33 48 17 20 47 55 66 77 25 30 36 38 42 28 15
-23 10 -33 -56 -122 -65 -86 -66 -86 -59 -136 4 -28 10 -52 14 -55 4 -2 39 40
79 95 40 55 77 103 84 107 6 4 -6 -16 -27 -45 -40 -55 -39 -69 5 -93 15 -7 24
-1 50 38 41 61 38 57 45 50 4 -3 -10 -29 -29 -56 l-36 -50 26 -21 c14 -11 29
-20 34 -20 4 0 23 21 40 48 18 26 36 48 40 50 4 2 22 26 40 53 17 27 33 48 36
45 2 -2 -11 -25 -29 -51 l-33 -46 25 -19 c14 -11 28 -20 31 -20 4 0 21 23 39
50 43 66 52 56 11 -11 -18 -28 -31 -52 -29 -53 2 -1 15 -10 31 -19 l27 -18 21
36 c12 19 25 33 29 30 5 -3 -1 -22 -13 -43 -20 -34 -49 -122 -40 -122 15 0 77
59 95 91 12 21 25 36 29 33 13 -8 -81 -154 -99 -155 -11 0 -12 -2 -4 -6 13 -5
17 -24 5 -22 -5 1 -15 1 -23 0 -12 -1 -11 -4 3 -15 18 -14 17 -15 -3 -21 -20
-6 -20 -8 -4 -20 15 -10 16 -16 6 -28 -10 -12 -9 -16 10 -20 21 -6 23 -11 20
-66 -2 -35 -9 -65 -18 -72 -9 -7 -11 -17 -4 -28 5 -10 5 -23 -1 -32 -5 -7 -9
-18 -9 -24 1 -5 5 -2 11 8 6 10 22 22 35 27 13 5 24 17 24 27 0 10 22 32 50
50 43 29 51 31 64 18 13 -13 15 -13 21 5 5 17 10 18 27 9 19 -10 20 -9 15 11
-5 19 -3 21 21 15 26 -6 26 -6 8 14 -17 19 -18 21 -2 21 10 0 14 5 10 11 -8
14 66 170 78 163 4 -3 -2 -24 -14 -47 -11 -23 -22 -61 -23 -85 l-2 -42 30 27
c16 16 38 47 49 71 10 23 21 42 24 42 4 0 -4 -22 -50 -123 -14 -32 -26 -61
-26 -66 0 -4 26 -3 57 3 63 13 61 11 113 129 22 49 34 67 50 69 11 0 25 1 31
2 7 1 12 -32 13 -89 1 -49 5 -99 8 -110 4 -11 7 -24 7 -28 2 -18 85 59 118
110 20 29 37 52 39 51 1 -2 -34 -123 -79 -269 l-82 -267 -49 15 -49 15 -41
-39 c-22 -21 -42 -39 -45 -40 -10 -6 66 -73 100 -89 22 -9 39 -23 39 -31 0 -7
7 -16 16 -20 13 -5 15 -15 11 -47 l-6 -41 13 34 c7 19 19 37 27 39 8 2 21 6
29 9 8 3 43 4 77 3 35 -1 64 3 68 10 3 5 11 8 16 5 22 -14 26 9 9 62 -16 54
-20 58 -61 71 -24 8 -46 16 -48 18 -5 5 50 208 60 219 11 11 11 8 0 -33 -7
-24 -6 -35 5 -46 8 -8 14 -21 14 -29 0 -8 7 -20 15 -27 11 -9 13 -23 8 -53 -7
-46 11 -45 20 1 4 17 16 33 31 40 14 6 26 16 26 21 0 5 9 11 20 14 13 3 22 17
26 36 5 22 12 31 26 31 16 0 19 5 14 23 -5 23 -5 23 49 14 50 -9 54 -12 49
-33 -5 -18 -1 -23 18 -26 20 -3 23 -8 21 -43 -2 -35 0 -32 17 25 20 72 22 65
22 -75 0 -49 3 -94 7 -100 11 -15 33 -113 28 -122 -2 -4 -1 -17 3 -28 7 -18 8
-17 15 10 8 38 54 133 68 142 9 6 29 -20 33 -44 1 -6 7 -27 13 -46 7 -19 11
-39 10 -43 -1 -5 0 -25 1 -44 2 -32 3 -30 14 21 7 31 24 77 39 103 17 31 27
66 29 101 2 30 6 55 10 55 4 0 10 36 14 81 6 76 8 80 28 75 78 -22 235 -12
252 15 5 8 1 88 -19 363 -1 16 3 31 10 33 13 5 22 -31 27 -112 2 -27 9 -51 15
-53 6 -2 11 -11 11 -20 0 -24 44 -112 72 -145 l24 -27 22 46 c12 25 25 73 29
107 7 67 17 58 28 -25 5 -39 13 -53 39 -73 29 -22 34 -33 40 -83 8 -62 34
-125 37 -87 2 25 2 21 -6 79 -6 36 -5 47 4 42 8 -5 10 -1 6 16 -22 95 -41 208
-35 208 5 0 15 2 23 5 10 4 18 -11 30 -62 59 -249 58 -245 113 -320 31 -42 54
-83 54 -97 0 -14 6 -29 14 -33 8 -5 19 -19 25 -33 10 -25 10 -24 10 7 1 17 6
35 12 38 7 5 5 14 -5 29 -12 20 -13 35 -2 107 7 54 15 79 20 70 13 -21 100 -6
175 30 l63 31 -6 38 -6 37 48 7 c59 8 138 44 184 85 20 17 42 29 50 26 8 -3
24 -26 36 -51 12 -24 30 -48 40 -51 9 -4 40 -30 69 -60 l51 -53 -15 57 c-8 31
-15 70 -15 87 0 17 -5 40 -11 50 -13 26 75 -44 131 -103 39 -42 42 -43 31 -16
-7 17 -16 35 -20 40 -9 13 -24 96 -20 113 1 8 -9 31 -23 53 -14 21 -26 45 -26
52 0 8 -9 26 -20 39 -10 14 -17 28 -13 31 3 4 15 -5 26 -19 11 -14 26 -23 34
-20 8 3 24 -1 37 -9 13 -9 29 -13 37 -10 9 3 25 -12 42 -40 27 -43 47 -57 47
-35 0 6 -13 29 -30 51 -16 23 -27 46 -23 51 16 26 11 102 -8 129 -12 17 -15
30 -9 34 5 3 10 0 10 -7 0 -14 15 -31 120 -134 52 -53 77 -70 91 -67 10 3 26
0 34 -7 14 -11 14 -10 6 13 -7 17 -7 28 0 32 5 4 -8 38 -31 81 -39 70 -63 101
-130 169 -17 17 -30 34 -30 39 0 5 -7 18 -17 28 -15 17 -15 18 13 18 24 0 41
-14 98 -80 l68 -80 60 0 60 0 -50 57 c-28 32 -69 76 -91 98 -23 21 -41 44 -41
50 1 5 22 -14 48 -43 l48 -53 29 31 29 30 -49 50 c-27 28 -45 50 -39 50 5 0
30 -20 54 -45 l44 -45 28 27 27 26 -91 101 c-51 56 -71 81 -45 56 l47 -44 26
25 25 25 -46 43 c-61 56 -50 66 12 11 l48 -42 22 29 23 28 -32 27 c-46 37 -28
47 19 11 21 -17 55 -35 75 -40 l37 -11 -19 37 c-10 21 -35 48 -54 62 -33 22
-46 39 -30 39 4 0 37 -23 74 -52 48 -36 66 -56 62 -67 -5 -14 -4 -14 13 -1 17
14 18 13 11 -15 l-7 -29 21 19 c21 19 21 19 27 -3 5 -21 6 -21 19 -5 13 17 15
17 28 0 13 -16 14 -16 20 8 6 24 8 25 64 19 39 -4 62 -13 72 -26 10 -11 22
-17 32 -13 9 4 27 1 40 -6 l23 -12 -20 22 c-11 13 -20 30 -20 39 0 10 -9 18
-20 20 -12 2 -30 22 -48 54 -24 46 -25 54 -12 67 12 13 12 16 -3 27 -14 10
-15 14 -2 30 14 16 13 17 -9 11 -20 -5 -23 -3 -19 18 5 21 3 23 -15 13 -17 -9
-19 -8 -13 7 5 15 4 16 -8 6 -11 -10 -29 -3 -88 35 -86 55 -83 52 -76 60 4 3
23 -5 45 -19 21 -13 57 -26 81 -30 l43 -5 -24 31 c-13 18 -43 43 -66 56 -23
13 -40 25 -38 27 2 3 43 -18 90 -46 47 -27 88 -50 91 -50 8 0 8 78 0 106 -3
13 -34 34 -88 61 -76 38 -84 45 -89 75 -2 18 -3 36 -1 39 2 3 31 0 66 -7 49
-11 75 -11 115 -2 l52 11 -17 26 c-24 40 -73 90 -110 113 -18 11 -31 22 -29
24 2 3 122 -41 265 -97 l261 -101 -19 -47 -18 -47 30 -39 c16 -22 33 -44 38
-49 13 -13 69 34 97 82 14 23 31 42 39 42 8 0 17 7 21 16 6 15 16 15 70 -2 10
-3 3 3 -16 14 -39 22 -44 34 -42 117 1 33 -1 77 -5 97 -5 35 -8 37 -32 32 -81
-20 -95 -29 -109 -68 -7 -22 -15 -41 -17 -44 -7 -6 -216 70 -216 78 0 5 14 3
30 -3 23 -9 35 -9 50 1 11 6 26 12 34 12 7 0 19 7 26 14 8 11 18 12 36 5 14
-5 33 -9 42 -9 15 1 15 3 -2 15 -11 8 -28 15 -38 15 -10 0 -18 7 -18 15 0 8
-9 24 -20 35 -11 11 -20 26 -20 34 0 8 -16 20 -34 26 -23 7 -33 16 -30 25 8
19 -14 29 -32 14 -16 -13 -16 -12 6 71 4 16 15 26 29 28 13 2 26 12 28 23 4
16 12 18 47 14 l41 -5 -45 15 c-25 8 -53 15 -63 15 -10 0 -16 4 -13 8 6 10
140 7 187 -3 17 -4 36 -2 43 4 8 6 51 14 97 18 80 6 82 7 48 17 -45 14 -164
90 -147 94 7 2 20 6 28 9 18 8 16 7 65 18 22 4 47 7 57 6 9 -1 19 3 23 9 6 9
-7 14 -28 11 -4 -1 -25 10 -47 24 -22 14 -40 23 -40 19 0 -3 -12 4 -26 15 -18
14 -41 21 -70 21 -24 0 -44 5 -44 10 0 6 -15 10 -34 10 -19 0 -38 4 -41 10 -3
6 -24 10 -47 10 -37 0 -40 2 -34 23 14 47 25 130 21 155 -2 15 -7 44 -10 65
l-6 37 -212 0 c-193 0 -725 -16 -822 -24 -71 -6 -255 -68 -255 -86 0 -7 60
-38 170 -88 20 -9 11 -10 -47 -6 -62 6 -75 4 -100 -14 -24 -17 -36 -19 -73
-12 -60 12 -113 12 -105 1 3 -5 30 -13 60 -16 30 -4 53 -11 50 -15 -5 -9 10
-13 115 -30 108 -17 109 -18 103 -40 -6 -23 -4 -23 -74 -10 -30 6 -71 13 -91
15 -20 3 -65 11 -100 18 -43 9 -89 10 -146 5 -54 -5 -90 -4 -103 3 -11 5 -29
7 -40 4 -16 -5 -18 -10 -8 -21 6 -8 22 -14 35 -14 13 0 50 -16 83 -37 l58 -36
-29 -42 c-19 -26 -32 -60 -35 -88 -5 -40 -3 -46 18 -57 13 -7 26 -14 28 -16 2
-2 -9 -18 -24 -36 -32 -37 -75 -124 -75 -150 0 -15 -4 -16 -26 -8 -15 6 -39
19 -54 30 -15 11 -36 21 -46 23 -11 2 -41 15 -69 28 -27 13 -54 25 -59 28 -6
2 7 -14 28 -35 44 -45 71 -82 64 -89 -3 -3 -35 10 -71 28 -37 19 -67 30 -67
25 0 -4 4 -8 8 -8 5 0 26 -25 47 -56 21 -31 65 -83 97 -117 32 -33 56 -63 53
-65 -3 -3 -16 5 -29 17 -14 13 -29 21 -33 18 -17 -10 -83 19 -116 51 -46 45
-59 40 -15 -5 34 -36 45 -63 52 -126 1 -15 13 -38 26 -52 13 -14 20 -25 16
-25 -3 0 -21 17 -39 37 -58 67 -168 167 -187 170 -14 2 -18 -3 -16 -21 4 -29
60 -130 97 -173 15 -17 30 -41 34 -52 3 -12 10 -21 15 -21 4 0 23 -23 40 -51
23 -37 27 -50 15 -45 -9 3 -22 6 -28 6 -7 0 -39 41 -72 90 -52 78 -66 91 -104
105 -25 8 -46 15 -48 15 -1 0 15 -29 37 -65 24 -40 35 -65 27 -65 -7 0 -21 -6
-32 -14 -17 -12 -17 -16 14 -70 18 -31 29 -56 24 -56 -5 0 -22 24 -38 54 -29
54 -29 54 -57 40 l-28 -15 30 -59 c30 -60 37 -86 21 -75 -5 3 -21 0 -35 -6
-25 -12 -25 -12 -10 -48 29 -68 33 -81 26 -81 -5 0 -19 25 -31 55 -20 48 -26
55 -45 49 -35 -10 -38 -20 -22 -58 10 -25 12 -36 4 -34 -6 2 -17 20 -23 39 -7
19 -24 52 -39 73 l-26 39 0 -50 c0 -28 5 -64 11 -81 6 -17 9 -37 6 -44 -2 -7
-16 27 -31 75 -15 48 -24 92 -21 97 3 6 1 10 -6 10 -10 0 -10 3 -1 12 17 17
15 29 -3 22 -10 -4 -15 0 -15 15 0 12 -6 21 -15 21 -8 0 -15 7 -15 16 0 13 -3
14 -14 5 -11 -9 -20 -2 -45 39 -17 28 -31 58 -31 68 0 9 -7 25 -14 35 -13 16
-14 16 -20 -9 -4 -14 -3 -31 3 -37 5 -8 5 -34 -1 -70 -8 -46 -14 -57 -25 -52
-12 4 -14 0 -10 -15 3 -13 0 -20 -9 -20 -11 0 -12 -4 -5 -19 8 -15 7 -20 -6
-25 -14 -6 -14 -8 3 -21 15 -11 16 -14 4 -15 -11 0 -12 -2 -2 -8 13 -9 32
-105 31 -157 0 -26 -2 -27 -9 -10 -5 11 -9 34 -10 50 0 17 -9 46 -19 64 l-19
35 -7 -32 c-11 -53 -25 -47 -25 12 0 31 -3 56 -7 56 -4 0 -24 -16 -45 -37
l-37 -36 6 -91 5 -91 -30 -22 c-35 -26 -37 -24 -52 43 -10 44 -56 154 -64 154
-10 0 -61 -90 -81 -144 -13 -33 -24 -56 -25 -51 0 6 14 132 32 282 l32 272 30
3 c26 3 33 10 49 52 l18 48 -31 29 c-16 16 -34 29 -39 29 -5 0 -12 12 -16 27
l-7 28 -17 -21 c-9 -12 -28 -25 -42 -29 -56 -18 -64 -30 -61 -90 4 -52 6 -56
32 -61 l27 -6 -19 -106 c-19 -109 -32 -157 -24 -90 3 21 0 40 -5 43 -5 4 -9
16 -9 29 0 12 -4 26 -10 32 -6 6 -6 21 -1 42 5 18 6 32 2 32 -5 0 -11 -13 -14
-30 -4 -16 -22 -44 -41 -62 -19 -18 -37 -45 -41 -60 -4 -14 -16 -28 -27 -31
-14 -4 -19 -11 -14 -22 4 -12 1 -15 -12 -11 -62 17 -62 17 -56 40 4 16 0 25
-10 29 -15 6 -15 10 -1 44 9 21 12 34 6 28 -5 -5 -19 -32 -30 -60 -11 -27 -20
-41 -20 -31 -1 19 3 33 33 131 8 28 18 77 22 110 4 33 11 71 16 84 5 13 6 26
4 29 -3 3 -9 -4 -13 -14 -3 -10 -25 -44 -47 -74 -48 -64 -54 -54 -31 45 8 37
13 70 10 73 -3 3 -5 0 -5 -5 0 -6 -26 -43 -58 -81 -32 -38 -64 -84 -72 -101
-7 -17 -16 -31 -20 -31 -4 0 -13 -14 -20 -30 -7 -17 -16 -30 -20 -30 -4 0 -15
-18 -25 -40 l-18 -40 -40 36 c-43 40 -110 73 -144 74 -17 0 -32 -15 -60 -60
-122 -196 -153 -239 -168 -234 -13 5 -13 10 2 37 8 17 22 37 29 45 15 14 15
15 19 47 2 11 11 38 20 60 10 22 19 65 21 97 l4 56 -42 -20 c-24 -11 -64 -38
-90 -60 -27 -21 -48 -36 -48 -33 0 3 17 29 39 58 31 42 37 59 34 84 -4 26 2
43 30 81 19 27 40 59 47 71 10 20 10 22 -3 14 -9 -4 -28 -24 -44 -44 -15 -20
-33 -34 -38 -33 -6 2 -39 -37 -75 -86 -36 -49 -68 -89 -71 -90 -4 0 -12 7 -19
15 -10 12 -4 25 32 72 125 164 155 212 177 278 13 39 35 82 48 96 13 14 23 30
21 35 -1 5 3 20 10 34 l13 25 -20 -22 c-10 -13 -24 -23 -30 -23 -6 0 -18 -11
-26 -24 -22 -33 -135 -100 -135 -80 0 22 -94 112 -125 120 -20 5 -32 1 -51
-17 -13 -12 -24 -18 -24 -12 0 19 -91 113 -135 139 -24 13 -42 31 -41 39 1 9
16 30 33 48 17 17 43 57 57 87 14 30 34 66 43 80 19 25 7 22 -27 -7 -23 -20
-100 -65 -100 -59 0 3 21 31 47 63 25 32 38 51 27 42 -10 -9 -44 -29 -74 -45
-30 -15 -72 -41 -92 -57 -21 -16 -38 -26 -38 -22 0 3 -13 -3 -29 -14 -38 -27
-52 -27 -17 0 14 11 24 24 21 29 -3 4 2 13 10 20 8 7 15 18 15 25 0 6 23 24
51 39 28 16 48 30 45 33 -3 3 -25 -6 -50 -21 -32 -19 -62 -27 -108 -29 -34 -2
-78 -11 -95 -21 -18 -9 -33 -13 -33 -9 0 5 21 17 47 28 26 11 92 42 148 69 77
37 96 50 81 55 -22 8 -248 -43 -340 -76 -22 -8 -59 -18 -83 -22 -38 -7 -44 -6
-41 8 2 12 38 25 133 49 100 25 136 38 155 58 22 23 23 25 5 20 -11 -3 -51
-10 -89 -16 -65 -10 -69 -10 -83 10 -12 18 -22 20 -59 15 -109 -13 -139 -15
-119 -6 11 5 38 10 60 10 22 1 50 4 63 7 21 6 21 7 5 20 -12 9 -50 13 -119 14
-84 0 -103 3 -108 16 -3 9 -4 20 0 25 3 5 -24 9 -60 9 -43 0 -66 4 -66 11 0 8
22 10 70 7 57 -4 74 -2 90 12 29 25 25 30 -25 30 -25 0 -45 4 -45 8 0 5 47 7
105 4 61 -3 105 -1 105 5 0 12 -52 29 -115 38 -27 4 -45 9 -39 12 11 4 249
-31 249 -37 0 -6 87 -5 91 2 3 4 11 5 19 1 9 -3 21 -1 28 4 12 10 157 1 190
-12 10 -4 17 -3 17 4 0 6 -12 14 -27 17 -49 11 -125 57 -111 66 9 5 8 8 -6 8
-12 0 -16 5 -12 15 4 10 -1 15 -14 15 -11 0 -17 5 -15 13 4 8 -7 13 -31 14
-20 1 -73 16 -118 34 -89 36 -92 37 -84 44 3 3 27 -3 54 -14 27 -10 69 -23 94
-29 l45 -10 -45 40 -45 41 74 -37 c40 -21 75 -36 76 -34 2 2 1 21 -2 43 -5 37
-11 44 -84 93 -68 45 -79 56 -79 81 0 16 7 34 15 41 8 7 15 8 15 3 0 -14 197
-90 207 -80 6 7 -29 104 -56 154 -16 30 -26 53 -22 51 5 -2 92 -93 194 -203
186 -200 186 -200 166 -221 -26 -28 -25 -33 21 -83 34 -37 44 -42 67 -36 72
17 94 17 116 -1 22 -19 22 -19 5 2 -24 27 -23 59 3 101 12 18 19 40 16 47 -3
7 -1 18 5 24 8 8 -6 19 -45 38 l-57 28 -25 -24 -26 -25 -79 85 c-43 47 -76 87
-74 89 2 3 16 -6 30 -20 14 -13 31 -24 37 -24 33 -2 75 -20 100 -43 32 -30 35
-23 8 16 -11 15 -22 49 -25 75 -2 31 -12 57 -25 71 -15 16 -18 25 -10 33 15
15 1 36 -20 29 -9 -3 2 10 23 29 34 30 41 33 49 20 5 -10 16 -14 29 -9 14 4
29 -3 51 -23 27 -24 29 -24 11 -3 -11 14 -28 37 -37 52 -24 38 3 27 32 -13 13
-17 25 -28 28 -25 3 3 21 -15 40 -39 19 -25 38 -45 44 -45 13 0 92 -59 102
-76 4 -8 12 -14 17 -14 5 0 -4 26 -20 58 -16 31 -32 67 -35 79 -9 32 16 21 84
-36 30 -25 52 -41 49 -36 -2 6 -12 28 -21 50 -10 22 -22 48 -27 57 -6 10 -10
24 -10 31 0 7 -13 31 -30 53 -16 21 -30 44 -30 50 0 6 -9 23 -21 38 -11 14
-18 26 -14 26 3 0 -6 16 -21 35 -15 20 -25 37 -23 39 2 2 24 12 49 23 54 25
130 89 130 110 0 9 -38 75 -84 147 -96 148 -105 166 -84 166 17 0 48 -31 48
-47 0 -24 176 -173 205 -173 11 0 4 110 -10 155 -8 27 -13 51 -10 53 2 2 18
-24 37 -57 25 -47 41 -63 66 -72 27 -9 39 -23 65 -75 17 -35 35 -64 39 -64 13
0 9 18 -12 61 -12 22 -18 44 -15 49 3 5 -15 50 -40 101 -45 88 -50 119 -22
119 7 0 45 -64 84 -143 54 -108 86 -158 132 -209 34 -36 61 -73 61 -81 0 -8
11 -26 24 -40 l24 -26 -3 35 c-2 20 -8 41 -13 47 -6 7 -13 39 -17 72 -4 33 -8
67 -11 75 -3 12 5 14 44 12 35 -3 58 3 92 21 41 22 45 27 43 59 l-2 35 67 5
c39 3 85 14 111 26 25 12 45 21 46 19 13 -16 25 -51 25 -74 0 -16 6 -37 13
-48 12 -18 42 -101 42 -117 0 -3 3 -9 6 -12 3 -4 9 24 12 61 4 36 11 71 16 76
9 9 45 -85 43 -115 0 -10 3 -20 9 -23 5 -4 9 9 9 27 0 19 7 60 15 92 8 32 13
62 9 67 -3 5 -2 40 2 77 5 46 10 59 13 42 3 -14 18 -44 34 -67 21 -34 27 -54
27 -98 0 -35 4 -54 10 -50 6 3 10 30 10 60 0 29 3 55 8 57 16 7 53 70 61 105
7 26 8 -9 4 -105 -5 -106 -3 -149 7 -167 11 -21 14 -22 27 -9 25 25 69 188 77
289 4 48 18 105 25 105 3 0 11 -8 17 -18 9 -14 7 -43 -8 -122 -18 -98 -18
-106 -3 -147 9 -24 20 -41 25 -38 4 2 13 32 19 65 l12 61 34 -7 34 -6 17 61
c10 34 21 61 26 61 5 0 6 -10 2 -22 -35 -110 -35 -106 -4 -117 28 -9 29 -9 46
42 19 56 70 158 58 117 -4 -14 -9 -30 -11 -36 -2 -7 9 -16 25 -22 29 -10 30
-9 52 44 12 30 26 54 30 54 5 0 -2 -25 -16 -56 -14 -31 -24 -58 -22 -59 10 -8
50 -26 53 -23 1 2 10 18 19 36 9 17 21 32 26 32 6 0 0 -21 -13 -47 -13 -27
-27 -66 -30 -87 l-6 -39 30 29 c17 16 42 48 56 72 43 73 38 38 -7 -42 -24 -44
-48 -76 -57 -76 -13 0 -13 -3 -3 -15 10 -13 9 -15 -10 -15 -18 0 -20 -3 -11
-14 10 -11 8 -17 -6 -25 -17 -9 -17 -10 0 -17 17 -6 17 -7 0 -26 -9 -11 -13
-19 -8 -18 30 6 33 -1 18 -52 -9 -29 -21 -60 -28 -68 -7 -8 -15 -25 -18 -37
-5 -21 -4 -21 19 -6 13 8 24 21 24 28 0 7 21 26 47 43 35 23 51 28 60 20 9 -7
14 -6 19 6 5 13 9 14 20 5 11 -9 14 -8 14 6 0 13 6 16 21 12 17 -5 20 -2 16
14 -3 10 -1 19 4 19 5 0 9 5 9 11 0 6 23 39 52 73 29 33 53 63 55 65 2 2 6 2
9 -2 4 -3 -10 -25 -30 -48 -20 -24 -36 -50 -36 -59 0 -9 -5 -21 -12 -28 -7 -7
-9 -12 -4 -12 16 0 53 24 95 64 29 26 19 11 -27 -40 l-72 -81 52 -6 51 -6 72
64 c65 58 76 64 104 59 17 -4 31 -11 31 -16 0 -5 -18 -34 -39 -65 -22 -30 -43
-68 -46 -84 -4 -16 -11 -31 -16 -34 -45 -28 78 -17 160 14 28 10 51 16 50 13
0 -4 -105 -75 -232 -158 -227 -147 -232 -150 -248 -130 -15 18 -20 19 -57 7
-61 -21 -66 -26 -67 -74 -1 -25 -8 -56 -17 -69 -16 -24 -16 -24 13 -20 16 2
39 -3 52 -11 13 -8 32 -17 43 -18 24 -5 107 60 99 78 -3 7 -7 19 -11 27 -3 9
27 32 92 70 53 31 99 54 101 52 3 -3 -9 -12 -26 -21 -17 -8 -31 -20 -31 -26 0
-18 -45 -71 -73 -86 -16 -8 -27 -17 -24 -19 3 -3 18 1 34 10 18 9 48 13 78 11
27 -1 60 1 73 6 16 6 29 6 38 -2 11 -9 15 -8 20 5 10 25 19 19 33 -20 11 -30
11 -38 0 -45 -8 -5 -17 -9 -21 -9 -3 0 -4 -9 -1 -19 4 -15 -2 -21 -26 -26 -17
-3 -33 -10 -36 -15 -3 -4 22 0 55 10 33 10 60 16 60 14 0 -6 -117 -59 -162
-74 -21 -6 -40 -16 -43 -21 -3 -5 -32 -22 -65 -37 l-58 -29 74 5 c51 3 74 1
74 -7 0 -12 -91 -61 -114 -61 -8 0 -17 -3 -19 -7 -9 -14 355 -2 406 13 15 5
17 -3 18 -68 0 -40 6 -91 13 -113 12 -39 13 -40 56 -39 25 1 267 6 538 12 298
6 497 14 505 20 6 5 28 13 47 17 39 8 93 35 129 63 l24 19 -29 16 c-55 30 -79
38 -126 44 -68 8 -59 20 18 25 60 4 69 7 93 36 21 26 33 32 64 32 21 0 59 5
85 12 37 9 42 13 26 19 -10 4 -43 5 -73 2 -42 -5 -52 -3 -46 7 6 9 0 11 -21 6
-28 -5 -190 -26 -207 -26 -5 0 -7 10 -5 22 3 24 -6 22 233 59 44 6 87 18 96
25 8 8 19 14 23 14 4 0 30 16 59 35 28 19 64 35 79 35 15 0 31 6 35 14 4 7 22
18 38 25 l30 11 -29 -4 c-16 -2 -38 1 -48 7 -13 9 -23 9 -37 0 -15 -9 -31 -9
-72 2 -30 8 -64 15 -76 15 -13 0 -23 5 -23 10 0 6 5 10 11 10 18 0 3 111 -24
178 -22 56 -23 57 -58 54 l-36 -3 -7 62 c-8 65 -45 161 -76 194 -23 25 -11 45
40 64 19 8 60 38 91 68 30 29 58 51 61 48 3 -3 11 2 19 11 12 14 9 15 -32 9
-24 -3 -70 -7 -101 -8 l-58 -3 63 61 c34 33 73 68 87 77 24 16 23 16 -15 3
-22 -7 -72 -15 -111 -18 -40 -2 -85 -12 -105 -23 -19 -10 -40 -17 -47 -15 -8
1 -24 -5 -37 -13 -13 -9 -26 -12 -29 -7 -3 4 6 13 19 19 14 7 25 20 25 29 0
10 7 27 15 37 8 11 15 28 15 38 0 10 16 26 39 38 39 19 57 37 48 46 -2 2 -24
-7 -48 -20 -45 -26 -97 -27 -141 -5 -11 6 -28 2 -52 -12 -20 -12 -36 -16 -36
-10 0 6 4 11 9 11 6 0 22 11 37 25 15 14 33 25 40 25 20 0 146 121 140 135 -2
7 1 21 9 31 12 18 10 19 -34 18 -51 0 -145 -39 -193 -79 -16 -14 -35 -25 -41
-25 -7 0 -24 -12 -38 -27 -15 -16 -40 -33 -58 -40 -29 -11 -31 -10 -31 12 0
19 20 38 89 87 l89 63 6 59 c4 32 6 60 4 62 -2 2 -35 -22 -73 -52 -39 -31 -87
-69 -107 -86 -21 -16 -38 -26 -38 -21 0 4 21 23 45 42 25 18 45 37 45 42 0 4
-10 20 -23 34 l-22 27 -48 -42 c-26 -24 -51 -40 -54 -36 -4 4 15 26 43 50 l49
44 -27 28 -26 27 -84 -68 c-114 -94 -131 -105 -76 -53 l47 45 -28 27 -27 26
-44 -45 c-24 -24 -46 -42 -49 -40 -3 3 15 25 39 50 l44 45 -24 25 -24 25 -32
-31 c-17 -17 -34 -27 -38 -21 -3 5 9 22 25 38 30 28 38 42 53 91 7 21 5 21
-25 10 -17 -7 -49 -32 -70 -56 -22 -24 -39 -38 -39 -32 0 18 103 140 118 140
7 1 10 6 6 13 -5 8 0 9 14 6 25 -7 28 2 10 20 -10 10 -8 14 10 19 21 5 21 6 5
19 -17 13 -17 15 0 28 16 13 16 14 -8 20 -18 5 -25 12 -21 24 2 9 7 38 11 64
4 28 12 49 22 52 9 4 13 14 10 25 -3 11 2 30 11 43 15 23 15 23 -4 6 -12 -10
-29 -18 -38 -18 -10 0 -20 -9 -23 -21 -4 -13 -26 -29 -62 -45 l-56 -25 -17 22
-18 21 0 -21 c0 -24 -4 -25 -30 -11 -15 8 -17 7 -12 -12 4 -19 2 -20 -22 -14
-25 6 -26 5 -16 -13 9 -18 8 -20 -7 -14 -15 6 -16 4 -6 -8 10 -13 4 -28 -34
-85 -55 -83 -52 -79 -59 -72 -3 4 5 23 19 45 13 21 26 57 29 80 l6 42 -21 -20
c-11 -10 -24 -19 -29 -19 -4 0 -21 -21 -38 -47 -16 -27 -30 -45 -30 -41 0 5
24 47 54 95 30 48 53 89 51 91 -2 2 -32 1 -67 -3 l-63 -7 -44 -83 c-41 -76
-47 -84 -78 -87 -41 -5 -46 2 -33 38 13 34 17 194 4 194 -19 0 -106 -68 -134
-104 -18 -25 -35 -44 -37 -42 -2 1 44 118 103 259 l106 256 47 -19 47 -18 47
34 c44 32 59 54 38 54 -5 0 -12 9 -16 20 -3 10 -28 34 -56 51 -27 18 -49 38
-49 44 0 7 -7 18 -14 25 -11 8 -12 18 -5 36 14 39 9 53 -7 17 -8 -20 -21 -33
-32 -33 -10 0 -23 -5 -28 -10 -8 -8 -26 -7 -60 0 -26 6 -60 8 -74 4 -14 -4
-31 -6 -37 -5 -16 2 -16 -13 -2 -78 9 -45 14 -51 47 -62 20 -6 40 -15 45 -18
8 -8 -57 -199 -74 -215 -12 -13 -11 -4 2 30 6 18 7 36 1 49 -23 50 -35 80 -35
85 1 3 5 18 8 33 4 16 3 27 -3 27 -6 0 -13 -14 -17 -31 -4 -19 -16 -34 -30
-39 -13 -5 -26 -14 -30 -19 -3 -6 -15 -11 -25 -11 -12 0 -22 -12 -30 -35 -8
-24 -17 -35 -28 -33 -12 2 -17 -4 -16 -18 0 -20 -2 -20 -45 -9 -38 9 -47 16
-49 37 -2 15 -11 28 -22 31 -17 4 -18 9 -10 38 12 41 12 41 2 35 -4 -3 -14
-28 -22 -55 -15 -54 -30 -69 -24 -23 16 121 19 188 10 222 -4 14 -8 45 -10 70
-2 46 -18 68 -25 35 -6 -32 -76 -133 -86 -124 -9 9 -32 132 -28 149 3 10 0 21
-6 24 -9 6 -16 -7 -9 -16 3 -4 -53 -100 -69 -119 -7 -9 -16 -39 -20 -68 -3
-28 -9 -51 -13 -51 -4 0 -16 -36 -25 -79 l-18 -79 -41 16 c-42 17 -184 24
-217 10 -15 -6 -18 -35 -24 -207 -6 -160 -10 -201 -21 -201 -14 0 -19 48 -14
143 1 21 -3 37 -9 37 -6 0 -10 3 -9 8 5 20 -16 96 -36 124 -12 18 -25 41 -29
52 -6 16 -11 12 -37 -25 -16 -24 -35 -71 -42 -103 -10 -48 -14 -54 -19 -35 -4
13 -7 45 -8 71 -1 40 -5 51 -31 70 -28 20 -30 26 -30 87 0 71 -13 110 -26 78
-3 -10 -4 -40 -2 -67 3 -33 1 -47 -6 -44 -8 3 -10 -17 -4 -73 12 -136 11 -153
-12 -153 -19 0 -22 7 -34 100 -2 19 -7 49 -9 65 -3 17 -8 58 -12 93 -5 51 -15
78 -52 138 -33 55 -43 81 -39 99 4 16 1 27 -9 33 -9 4 -20 21 -24 38 l-9 29
-1 -31 c-1 -16 -6 -35 -13 -42 -8 -8 -9 -18 -1 -34 7 -17 4 -43 -13 -103 -12
-44 -23 -74 -23 -67 -2 22 -128 15 -191 -11 -54 -22 -55 -23 -52 -60 l3 -37
-51 0 c-57 0 -146 -28 -200 -64 l-36 -24 -17 21 c-9 11 -19 32 -22 46 -3 15
-23 43 -43 63 -21 20 -44 49 -52 65 -8 15 -21 35 -29 43 -12 13 -13 10 -8 -20
9 -43 11 -149 5 -156 -7 -6 -75 63 -105 109 -14 20 -27 37 -29 37 -1 0 2 -15
7 -34 5 -18 11 -65 13 -102 1 -40 10 -83 20 -102 9 -18 15 -39 13 -45 -2 -7 2
-25 10 -40 8 -16 12 -31 9 -34 -3 -3 -11 6 -17 21 -7 14 -19 26 -28 26 -9 0
-25 7 -35 15 -11 8 -27 15 -36 15 -10 0 -26 20 -40 50 -13 28 -27 50 -32 50
-13 0 -9 -18 13 -61 17 -34 19 -46 9 -68 -6 -15 -10 -32 -9 -37 1 -5 -1 -17
-6 -27 -5 -12 -2 -32 8 -53 9 -19 12 -34 7 -34 -6 0 -10 5 -10 11 0 6 -11 24
-25 41 -14 16 -25 36 -25 44 0 22 -100 144 -118 144 -8 0 -23 6 -31 14 -14 13
-16 9 -15 -42 1 -59 29 -143 65 -193 10 -15 19 -32 19 -39 0 -7 11 -25 25 -42
14 -16 25 -37 25 -47 0 -9 5 -22 12 -29 16 -16 7 -22 -20 -15 -15 3 -41 37
-77 98 -30 52 -63 96 -72 99 -35 10 -93 18 -93 13 0 -3 22 -41 48 -84 27 -43
58 -96 71 -118 20 -35 20 -37 2 -15 -11 14 -28 40 -38 58 -20 37 -29 39 -63
13 l-24 -19 32 -52 c34 -55 36 -60 24 -60 -4 0 -21 23 -37 50 -16 28 -34 50
-40 50 -5 0 -21 -9 -34 -19 l-24 -19 31 -51 c18 -28 32 -55 32 -59 0 -4 16
-31 36 -61 20 -29 32 -51 26 -47 -6 3 -23 26 -38 50 l-28 45 -28 -17 c-15 -9
-28 -20 -28 -24 0 -4 14 -28 32 -53 17 -24 29 -47 26 -51 -4 -3 -21 17 -40 44
l-34 50 -27 -16 c-32 -20 -33 -29 -7 -62 21 -27 25 -40 11 -40 -4 0 -20 17
-34 39 -14 21 -41 47 -61 59 l-35 21 5 -32 c3 -18 19 -52 35 -76 51 -74 27
-65 -32 13 -43 56 -54 77 -45 86 8 8 7 10 -6 5 -13 -5 -15 -2 -11 14 4 16 1
19 -16 14 -15 -4 -21 -1 -21 11 0 14 -4 15 -20 6 -16 -9 -20 -8 -20 5 0 19
-10 19 -24 0 -10 -14 -18 -12 -65 10 -30 15 -55 34 -58 46 -3 10 -12 19 -21
19 -8 0 -24 8 -35 18 -19 17 -20 16 -8 -6 7 -13 10 -30 7 -38 -3 -7 3 -18 13
-23 11 -7 22 -31 29 -67 13 -61 10 -74 -16 -74 -15 -1 -15 -2 2 -15 21 -16 21
-17 -9 -33 -19 -11 -19 -11 3 -12 23 0 29 -19 11 -37 -7 -7 -2 -9 18 -5 25 5
27 4 14 -12 -12 -14 -12 -16 2 -10 11 4 32 -15 71 -62 30 -37 53 -71 50 -76
-3 -5 -20 9 -38 32 -35 44 -113 93 -101 62 4 -9 10 -26 13 -37 2 -11 21 -40
41 -65 19 -25 28 -39 19 -32 -10 8 -43 45 -74 84 -62 75 -62 75 -84 -4 l-12
-48 61 -69 c58 -65 62 -72 55 -105 -3 -20 -10 -36 -15 -36 -5 0 -33 16 -62 35
-28 19 -68 38 -87 41 -19 4 -42 10 -51 15 -14 7 -15 2 -8 -44 5 -29 22 -79 38
-112 16 -33 29 -61 27 -62 -1 -1 -88 92 -193 206 l-192 209 34 31 c19 17 33
37 30 43 -2 7 -9 32 -15 56 -11 43 -11 43 -48 37 -20 -3 -51 -14 -70 -25 -44
-27 -90 -26 -120 3 l-25 22 12 -22 c6 -12 15 -25 21 -28 13 -8 0 -66 -22 -94
-17 -22 -43 -99 -36 -106 8 -8 82 -35 95 -35 8 0 29 12 46 26 l32 27 77 -84
c42 -46 75 -86 72 -88 -2 -2 -15 5 -27 17 -16 15 -40 24 -71 26 -32 3 -55 11
-72 27 -30 28 -45 17 -16 -14 14 -14 22 -40 26 -76 3 -35 12 -61 25 -75 12
-13 18 -26 14 -30 -5 -4 0 -13 9 -20 16 -12 15 -15 -12 -41 -24 -23 -30 -25
-35 -13 -8 21 -54 19 -47 -2 3 -8 10 -21 15 -28 5 -7 8 -14 6 -17 -5 -4 -74
96 -103 150 -28 50 -86 130 -86 119 0 -6 7 -31 16 -57 23 -67 11 -81 -16 -19
-12 29 -24 51 -26 50 -3 -4 22 -179 31 -215 3 -12 7 -39 10 -61 3 -21 11 -72
19 -113 14 -68 13 -75 -2 -84 -9 -5 -47 -41 -84 -78 l-68 -69 -2 -282 c-3
-231 -5 -277 -16 -259 -8 14 -13 70 -14 158 0 75 -5 138 -10 141 -4 3 -7 8 -4
12 3 6 -9 98 -31 235 l-6 38 -34 -48 c-18 -26 -39 -64 -45 -85 -15 -51 -27
-48 -17 5 19 93 21 124 10 164 -10 35 -8 55 9 122 22 87 24 105 12 97 -5 -3
-15 -30 -22 -60 -7 -31 -16 -53 -20 -51 -4 3 -20 -39 -35 -93 -42 -149 -42
-148 -64 -128 -19 17 -19 20 10 104 16 48 28 87 27 87 -1 0 12 41 29 90 17 50
38 132 47 184 10 51 24 104 32 117 9 13 14 31 12 41 -2 13 -13 2 -35 -37 -31
-52 -86 -120 -98 -120 -4 0 -3 5 0 10 10 17 -33 77 -71 99 -44 26 -56 26 -79
1 -17 -19 -18 -19 -45 23 -31 50 -97 108 -150 134 -42 22 -41 31 7 87 18 22
33 45 33 52 0 18 31 85 49 107 19 23 6 35 -16 15 -22 -20 -122 -72 -128 -67
-7 7 34 112 51 131 30 32 8 30 -47 -7 -29 -19 -58 -35 -64 -35 -5 0 -41 -30
-79 -65 -38 -36 -70 -65 -73 -65 -2 0 3 10 11 23 8 12 14 46 13 78 0 50 4 62
33 98 44 56 28 67 -18 13 -27 -30 -45 -42 -64 -42 -15 0 -29 -4 -32 -9 -3 -4
-16 -6 -28 -4 -17 3 -28 -4 -43 -26 -10 -16 -23 -28 -27 -25 -8 5 47 91 62 96
5 2 27 36 49 76 30 54 39 81 35 101 -9 45 -51 30 -129 -47 -92 -92 -115 -118
-115 -130 0 -5 -17 -28 -39 -52 l-38 -42 -6 28 c-4 24 6 43 60 113 l65 84 -8
61 -9 61 -83 -112 c-46 -62 -86 -113 -89 -113 -3 0 11 23 31 50 20 28 36 54
36 59 0 8 -43 41 -54 41 -2 0 -21 -23 -41 -50 -49 -67 -59 -56 -11 12 l36 52
-27 23 c-16 12 -30 22 -33 23 -3 0 -14 -14 -24 -32 -11 -17 -33 -48 -51 -67
-17 -20 -44 -54 -58 -76 -15 -22 -27 -36 -27 -32 0 5 14 28 30 52 36 53 37 58
6 74 -30 16 -39 11 -67 -39 -13 -22 -26 -40 -31 -40 -13 0 -10 9 22 55 17 24
30 46 30 49 0 3 -12 13 -26 23 -26 17 -27 16 -54 -18 -37 -45 -47 -34 -13 16
14 21 28 52 30 69 1 17 5 36 7 43 11 28 -64 -36 -88 -76 -15 -24 -30 -41 -33
-38 -6 7 75 150 89 155 4 2 6 8 2 13 -3 5 7 9 22 9 27 0 27 1 8 15 -18 14 -18
15 -1 26 17 10 17 12 1 23 -12 9 -14 15 -6 20 19 11 14 26 -8 26 -18 0 -20 7
-20 64 0 50 4 65 16 70 11 4 14 13 11 27 -3 12 -1 33 4 48 l9 26 -19 -25 c-11
-14 -26 -25 -32 -25 -7 0 -16 -10 -19 -23 -4 -19 -82 -82 -102 -82 -4 0 -14 7
-22 16 -15 14 -16 14 -16 -5 0 -24 -4 -25 -30 -11 -15 8 -17 6 -13 -10 4 -16
0 -20 -18 -20 -18 0 -20 -3 -11 -12 17 -17 15 -28 -5 -21 -14 5 -16 3 -6 -7 9
-10 3 -30 -29 -94 -23 -45 -43 -76 -45 -69 -2 6 5 30 16 52 12 22 21 56 21 76
l0 36 -25 -18 c-14 -10 -37 -39 -51 -65 -13 -27 -27 -48 -29 -48 -3 0 4 17 14
39 11 21 32 64 46 96 l25 57 -48 -6 c-77 -11 -78 -12 -117 -105 -33 -79 -40
-90 -67 -95 -17 -3 -33 -4 -38 -1 -4 2 -3 29 2 59 13 73 -10 187 -32 165 -8
-8 -27 -22 -42 -31 -14 -10 -41 -42 -60 -72 -18 -31 -36 -56 -39 -56 -3 0 31
118 76 263 90 288 81 274 156 253 20 -6 33 0 69 32 l44 38 -20 27 c-10 14 -37
36 -59 48 -22 12 -52 36 -66 53 -22 25 -25 35 -18 60 12 43 3 44 -11 2z m191
-1009 c-10 -9 -11 -8 -5 6 3 10 9 15 12 12 3 -3 0 -11 -7 -18z m-20 -40 c-10
-9 -11 -8 -5 6 3 10 9 15 12 12 3 -3 0 -11 -7 -18z m6579 -67 c-6 -11 -13 -20
-16 -20 -2 0 0 9 6 20 6 11 13 20 16 20 2 0 0 -9 -6 -20z m270 -54 c0 -2 -8
-10 -17 -17 -16 -13 -17 -12 -4 4 13 16 21 21 21 13z m-50 -59 c0 -2 -10 -12
-22 -23 l-23 -19 19 23 c18 21 26 27 26 19z m-60 -71 c0 -2 -8 -10 -17 -17
-16 -13 -17 -12 -4 4 13 16 21 21 21 13z m-8063 -38 c-3 -8 -6 -5 -6 6 -1 11
2 17 5 13 3 -3 4 -12 1 -19z m10 -65 c-3 -10 -5 -4 -5 12 0 17 2 24 5 18 2 -7
2 -21 0 -30z m2643 24 c0 -2 -12 -14 -27 -28 l-28 -24 24 28 c23 25 31 32 31
24z m-2633 -109 c-3 -7 -5 -2 -5 12 0 14 2 19 5 13 2 -7 2 -19 0 -25z m4463
-48 c23 -28 40 -50 37 -50 -2 0 -26 26 -53 57 -27 31 -44 54 -37 50 6 -4 30
-30 53 -57z m2900 -20 c-6 -11 -13 -20 -16 -20 -2 0 0 9 6 20 6 11 13 20 16
20 2 0 0 -9 -6 -20z m-7273 -42 c-3 -7 -5 -2 -5 12 0 14 2 19 5 13 2 -7 2 -19
0 -25z m7503 -128 c-69 -79 -74 -77 -8 4 29 36 55 63 57 61 2 -3 -20 -31 -49
-65z m-753 18 c-3 -8 -6 -5 -6 6 -1 11 2 17 5 13 3 -3 4 -12 1 -19z m-10 -40
c-3 -8 -6 -5 -6 6 -1 11 2 17 5 13 3 -3 4 -12 1 -19z m-10 -40 c-3 -8 -6 -5
-6 6 -1 11 2 17 5 13 3 -3 4 -12 1 -19z m713 -11 c0 -2 -12 -14 -27 -28 l-28
-24 24 28 c23 25 31 32 31 24z m-9430 -73 c0 -2 -9 0 -20 6 -11 6 -20 13 -20
16 0 2 9 0 20 -6 11 -6 20 -13 20 -16z m1391 -69 l10 -20 -16 20 c-9 11 -21
29 -26 40 l-10 20 16 -20 c9 -11 21 -29 26 -40z m-2184 -771 c-3 -3 -12 -4
-19 -1 -8 3 -5 6 6 6 11 1 17 -2 13 -5z m6813 -14 c8 -5 11 -10 5 -10 -5 0
-17 5 -25 10 -8 5 -10 10 -5 10 6 0 17 -5 25 -10z m269 -36 c14 -12 -19 -1
-35 12 -18 14 -18 14 6 3 14 -6 27 -13 29 -15z m-1941 -281 c-10 -2 -26 -2
-35 0 -10 3 -2 5 17 5 19 0 27 -2 18 -5z m170 -50 c-10 -2 -28 -2 -40 0 -13 2
-5 4 17 4 22 1 32 -1 23 -4z m-348 -393 c19 -11 31 -19 25 -19 -5 0 -26 8 -45
19 -19 11 -30 19 -25 19 6 0 26 -8 45 -19z m210 -10 c8 -5 11 -10 5 -10 -5 0
-17 5 -25 10 -8 5 -10 10 -5 10 6 0 17 -5 25 -10z m50 -20 c8 -5 11 -10 5 -10
-5 0 -17 5 -25 10 -8 5 -10 10 -5 10 6 0 17 -5 25 -10z m6787 -16 c-3 -3 -12
-4 -19 -1 -8 3 -5 6 6 6 11 1 17 -2 13 -5z m-2140 -829 c21 -42 1 -19 -26 30
-13 22 -15 31 -6 20 9 -11 23 -33 32 -50z m1423 -51 c0 -2 -9 0 -20 6 -11 6
-20 13 -20 16 0 2 9 0 20 -6 11 -6 20 -13 20 -16z m-9430 3 c0 -2 -12 -14 -27
-28 l-28 -24 24 28 c23 25 31 32 31 24z m-96 -114 c-59 -71 -70 -83 -59 -63
12 21 96 120 102 120 3 0 -16 -26 -43 -57z m753 25 c-3 -8 -6 -5 -6 6 -1 11 2
17 5 13 3 -3 4 -12 1 -19z m-10 -40 c-3 -8 -6 -5 -6 6 -1 11 2 17 5 13 3 -3 4
-12 1 -19z m7277 -15 c9 -18 14 -33 12 -33 -6 0 -36 55 -36 66 0 11 5 3 24
-33z m-7455 -22 c-6 -18 -13 -30 -15 -28 -2 2 1 18 7 36 6 18 13 30 15 28 2
-2 -1 -18 -7 -36z m6908 -98 c-3 -10 -5 -2 -5 17 0 19 2 27 5 18 2 -10 2 -26
0 -35z m-4377 -18 c13 -14 21 -25 18 -25 -2 0 -15 11 -28 25 -13 14 -21 25
-18 25 2 0 15 -11 28 -25z m50 -60 c13 -14 21 -25 18 -25 -2 0 -15 11 -28 25
-13 14 -21 25 -18 25 2 0 15 -11 28 -25z m4417 -47 c-3 -7 -5 -2 -5 12 0 14 2
19 5 13 2 -7 2 -19 0 -25z m10 -60 c-3 -7 -5 -2 -5 12 0 14 2 19 5 13 2 -7 2
-19 0 -25z m-4676 5 c13 -16 12 -17 -3 -4 -17 13 -22 21 -14 21 2 0 10 -8 17
-17z m30 -40 c13 -16 12 -17 -3 -4 -17 13 -22 21 -14 21 2 0 10 -8 17 -17z
m4656 -35 c-3 -8 -6 -5 -6 6 -1 11 2 17 5 13 3 -3 4 -12 1 -19z m-8017 8 c0
-2 -8 -10 -17 -17 -16 -13 -17 -12 -4 4 13 16 21 21 21 13z m-50 -59 c0 -2
-10 -12 -22 -23 l-23 -19 19 23 c18 21 26 27 26 19z m-60 -71 c0 -2 -8 -10
-17 -17 -16 -13 -17 -12 -4 4 13 16 21 21 21 13z m204 -146 c-15 -22 -29 -40
-31 -40 -5 0 3 15 29 53 30 43 31 32 2 -13z m6557 -127 c-11 -21 -20 -35 -21
-31 0 12 33 78 38 74 2 -2 -6 -21 -17 -43z m916 -715 c-3 -7 -5 -2 -5 12 0 14
2 19 5 13 2 -7 2 -19 0 -25z"/>
<path d="M10131 6384 c0 -11 3 -14 6 -6 3 7 2 16 -1 19 -3 4 -6 -2 -5 -13z"/>
<path d="M6650 4620 c6 -11 13 -20 16 -20 2 0 0 9 -6 20 -6 11 -13 20 -16 20
-2 0 0 -9 6 -20z"/>
<path d="M6140 1920 c6 -11 13 -20 16 -20 2 0 0 9 -6 20 -6 11 -13 20 -16 20
-2 0 0 -9 6 -20z"/>
</g>
</svg>
